<?xml version="1.0" encoding="UTF-8" standalone="no" ?>
<!DOCTYPE svg PUBLIC "-//W3C//DTD SVG 1.1//EN" "http://www.w3.org/Graphics/SVG/1.1/DTD/svg11.dtd">
<svg xmlns="http://www.w3.org/2000/svg" xmlns:xlink="http://www.w3.org/1999/xlink" version="1.1" width="400" height="400" viewBox="0 0 400 400" xml:space="preserve">
<desc>Created with Fabric.js 3.6.2</desc>
<defs>
</defs>
<g transform="matrix(0.2 0 0 0.2 200 200)" id="Layer_1"  >
<path style="stroke: none; stroke-width: 1; stroke-dasharray: none; stroke-linecap: butt; stroke-dashoffset: 0; stroke-linejoin: miter; stroke-miterlimit: 4; fill: rgb(37,211,102); fill-rule: nonzero; opacity: 1;"  transform=" translate(-500, -500)" d="M 500 1000 L 500 1000 C 223.9 1000 0 776.1 0 500 v 0 C 0 223.9 223.9 0 500 0 h 0 c 276.1 0 500 223.9 500 500 v 0 C 1000 776.1 776.1 1000 500 1000 z" stroke-linecap="round" />
</g>
<g transform="matrix(0.2 0 0 0.2 200.01 200.48)" id="WA_Logo"  >
<path style="stroke: none; stroke-width: 1; stroke-dasharray: none; stroke-linecap: butt; stroke-dashoffset: 0; stroke-linejoin: miter; stroke-miterlimit: 4; fill: rgb(255,255,255); fill-rule: evenodd; opacity: 1;"  transform=" translate(-500.05, -502.4)" d="M 733.9 267.2 c -62 -62.1 -144.6 -96.3 -232.5 -96.4 c -181.1 0 -328.6 147.4 -328.6 328.6 c 0 57.9 15.1 114.5 43.9 164.3 L 170.1 834 l 174.2 -45.7 c 48 26.2 102 40 157 40 h 0.1 c 0 0 0 0 0 0 c 181.1 0 328.5 -147.4 328.6 -328.6 C 830.1 411.9 796 329.3 733.9 267.2 z M 501.5 772.8 h -0.1 c -49 0 -97.1 -13.2 -139 -38.1 l -10 -5.9 L 249 755.9 l 27.6 -100.8 l -6.5 -10.3 c -27.3 -43.5 -41.8 -93.7 -41.8 -145.4 c 0.1 -150.6 122.6 -273.1 273.3 -273.1 c 73 0 141.5 28.5 193.1 80.1 c 51.6 51.6 80 120.3 79.9 193.2 C 774.6 650.3 652 772.8 501.5 772.8 z M 651.3 568.2 c -8.2 -4.1 -48.6 -24 -56.1 -26.7 c -7.5 -2.7 -13 -4.1 -18.5 4.1 c -5.5 8.2 -21.2 26.7 -26 32.2 c -4.8 5.5 -9.6 6.2 -17.8 2.1 c -8.2 -4.1 -34.7 -12.8 -66 -40.8 c -24.4 -21.8 -40.9 -48.7 -45.7 -56.9 c -4.8 -8.2 -0.5 -12.7 3.6 -16.8 c 3.7 -3.7 8.2 -9.6 12.3 -14.4 c 4.1 -4.8 5.5 -8.2 8.2 -13.7 c 2.7 -5.5 1.4 -10.3 -0.7 -14.4 c -2.1 -4.1 -18.5 -44.5 -25.3 -61 c -6.7 -16 -13.4 -13.8 -18.5 -14.1 c -4.8 -0.2 -10.3 -0.3 -15.7 -0.3 c -5.5 0 -14.4 2.1 -21.9 10.3 c -7.5 8.2 -28.7 28.1 -28.7 68.5 c 0 40.4 29.4 79.5 33.5 84.9 c 4.1 5.5 57.9 88.4 140.3 124 c 19.6 8.5 34.9 13.5 46.8 17.3 c 19.7 6.3 37.6 5.4 51.7 3.3 c 15.8 -2.4 48.6 -19.9 55.4 -39 c 6.8 -19.2 6.8 -35.6 4.8 -39 C 665 574.4 659.5 572.4 651.3 568.2 z" stroke-linecap="round" />
</g>
</svg>