<?xml version="1.0" encoding="UTF-8" standalone="no" ?>
<!DOCTYPE svg PUBLIC "-//W3C//DTD SVG 1.1//EN" "http://www.w3.org/Graphics/SVG/1.1/DTD/svg11.dtd">
<svg xmlns="http://www.w3.org/2000/svg" xmlns:xlink="http://www.w3.org/1999/xlink" version="1.1" width="400" height="400" viewBox="0 0 400 400" xml:space="preserve">
<desc>Created with Fabric.js 3.6.2</desc>
<defs>
</defs>
<g transform="matrix(2 0 0 2 200 200)" id="Background_2_"  >
<linearGradient id="SVGID_Background_13__1" gradientUnits="userSpaceOnUse" gradientTransform="matrix(60 0 0 -60 4071 44901)"  x1="-67.0167" y1="748.2662" x2="-67.0167" y2="746.7667">
<stop offset="0%" style="stop-color:rgb(30,81,238);stop-opacity: 1"/>
<stop offset="100%" style="stop-color:rgb(25,230,255);stop-opacity: 1"/>
</linearGradient>
<path style="stroke: none; stroke-width: 1; stroke-dasharray: none; stroke-linecap: butt; stroke-dashoffset: 0; stroke-linejoin: miter; stroke-miterlimit: 4; fill: url(#SVGID_Background_13__1); fill-rule: nonzero; opacity: 1;"  transform=" translate(-50, -50)" d="M 63.6 5 c 9 0 13.5 0 18.4 1.5 c 5.3 1.9 9.5 6.1 11.4 11.4 C 95 22.8 95 27.4 95 36.4 v 27.2 c 0 9 0 13.5 -1.5 18.4 c -1.9 5.3 -6.1 9.5 -11.4 11.4 C 77.2 95 72.6 95 63.6 95 H 36.4 c -9 0 -13.5 0 -18.4 -1.5 C 12.7 91.5 8.5 87.4 6.6 82 C 5 77.2 5 72.7 5 63.6 V 36.4 c 0 -9 0 -13.5 1.5 -18.4 C 8.5 12.7 12.7 8.5 18 6.6 C 22.8 5 27.4 5 36.4 5 H 63.6 z" stroke-linecap="round" />
</g>
<g transform="matrix(2 0 0 2 200 200.16)" id="Mail-Icon"  >
<path style="stroke: none; stroke-width: 1; stroke-dasharray: none; stroke-linecap: butt; stroke-dashoffset: 0; stroke-linejoin: miter; stroke-miterlimit: 4; fill: rgb(255,255,255); fill-rule: nonzero; opacity: 1;"  transform=" translate(-50, -50.08)" d="M 78.9 69.5 c -0.1 0 -0.3 0.1 -0.4 0.1 h -57 c -0.1 0 -0.3 0 -0.4 -0.1 l 0 0 l 17.8 -17.8 l 3.8 3.9 c 4.1 4.2 10.6 4.2 14.7 0 l 3.8 -3.9 L 78.9 69.5 L 78.9 69.5 L 78.9 69.5 z M 80 67.6 V 32.3 c 0 -0.2 0 -0.4 -0.1 -0.5 C 79.8 32 62.2 50.2 62.2 50.2 l 17.8 17.8 C 80 67.8 80 67.7 80 67.6 L 80 67.6 z M 20 67.7 V 32.5 c 0 -0.2 0 -0.4 0.1 -0.5 c 0.1 0.2 17.7 18.4 17.7 18.4 L 20.1 68.1 C 20 68 20 67.8 20 67.7 L 20 67.7 z M 79 30.6 L 56.3 53.8 c -3.5 3.5 -9.1 3.5 -12.5 0 L 21.1 30.6 C 21 30.5 79 30.6 79 30.6 L 79 30.6 z" stroke-linecap="round" />
</g>
</svg>